<svg width="1852" height="2473" xmlns="http://www.w3.org/2000/svg" xmlns:xlink="http://www.w3.org/1999/xlink" xml:space="preserve" overflow="hidden"><defs><clipPath id="clip0"><rect x="1275" y="3" width="1852" height="2473"/></clipPath></defs><g clip-path="url(#clip0)" transform="translate(-1275 -3)"><path d="M1277.76 5.00016 3124.76 5.00016 3124.76 1551.53C3122.29 1603.62 3111.13 1655.71 3096.26 1706.56 3080.13 1762.37 3059.05 1816.93 3031.79 1869.02 2999.55 1929.79 2961.14 1984.36 2917.74 2035.21 2866.94 2094.74 2809.91 2146.83 2747.91 2191.48 2669.84 2248.53 2588.03 2300.61 2501.24 2346.5 2409.51 2394.87 2312.82 2435.79 2214.9 2468.04L2201.26 2473 2187.63 2468.04C2089.7 2435.79 1993.01 2394.87 1901.28 2346.5 1814.5 2300.61 1732.69 2248.53 1654.6 2191.48 1592.62 2146.83 1535.6 2094.74 1484.77 2035.21 1441.39 1984.36 1402.96 1929.79 1370.73 1869.02 1343.46 1816.93 1322.39 1762.37 1306.27 1706.56 1291.4 1655.71 1280.24 1603.62 1277.76 1551.53L1277.76 5.00016Z" stroke="#000000" stroke-width="3.71647" stroke-miterlimit="8" fill="#FFFFFF" fill-rule="evenodd"/><path d="M3078.76 721 1317.76 721 1317.76 1547.96C1322.72 1597.56 1331.4 1647.15 1345.04 1695.5 1359.92 1748.82 1381.01 1799.65 1407.05 1849.24 1436.81 1906.27 1474.02 1958.35 1514.94 2007.94 1563.31 2063.73 1616.63 2113.32 1677.4 2156.72 1753.05 2212.51 1833.66 2263.34 1917.99 2307.98 2008.52 2355.09 2102.77 2394.76 2198.26 2427 2293.75 2394.76 2388 2355.09 2478.54 2307.98 2562.85 2263.34 2643.49 2212.51 2719.11 2156.72 2779.87 2113.32 2833.21 2063.73 2881.58 2007.94 2922.5 1958.35 2959.71 1906.27 2989.47 1849.24 3015.53 1799.65 3036.61 1748.82 3051.47 1695.5 3065.13 1647.15 3073.82 1597.56 3078.76 1547.96L3078.76 721Z" fill="#005FA3" fill-rule="evenodd"/><path d="M3078.76 48.0001 1317.76 48.0001 1317.76 666 3078.76 666 3078.76 48.0001Z" fill="#E63937" fill-rule="evenodd"/><path d="M2863.65 566.248 2802.98 292.397 2759.66 256.134C2566.51 254.883 2372.12 256.134 2178.97 261.136 1970.97 266.138 1762.96 276.141 1554.96 289.896L1533.91 313.655 1500.48 534.986 1413.81 533.735 1413.81 314.905 1392.76 291.147 1392.76 282.394C1666.39 259.885 1941.25 246.13 2214.88 238.627 2478.59 231.124 2744.79 231.124 3008.52 238.627L3009.76 252.382 2976.32 283.644 2977.56 570 2863.65 566.248Z" fill="#FFFFFF" fill-rule="evenodd"/><path d="M2962.67 126.494 2962.67 172.175C2978.77 172.175 2993.66 173.444 3009.76 173.444L3009.76 208.974C2745.75 203.898 2481.75 205.167 2217.73 214.05 1942.57 221.663 1666.17 238.159 1391 261L1391 229.277C1404.63 228.008 1418.27 226.739 1431.9 225.471L1431.9 184.864C1418.27 186.133 1404.63 187.402 1391 188.671L1389.76 175.982C1662.44 150.603 1936.37 132.838 2209.06 121.417 2475.54 109.997 2742.05 104.921 3008.52 106.19L3007.29 126.494C2992.39 126.494 2977.53 126.494 2962.67 126.494Z" fill="#FFFFFF" fill-rule="evenodd"/><path d="M1765.61 546.086 1578.16 604 1385.76 604 2063.52 433.955 2028.77 279.929 2063.52 279.929 2116.9 510.352 2151.66 510.352 2208.76 275 2244.76 275 2177.73 552.248 2092.08 548.55 2084.63 515.28 1892.22 604 1643.96 604 1814.02 547.32 1765.61 546.086Z" fill="#FFFFFF" fill-rule="evenodd"/><path d="M2506.78 546.367 2481.96 546.367 2479.49 604 2172.76 604 2490.64 333 2489.41 357.526 2498.09 357.526 2496.86 334.226 2814.76 604 2509.29 604 2506.78 546.367Z" fill="#FFFFFF" fill-rule="evenodd"/><path d="M2218.65 2239.03 2218.65 2239.03C2219.89 2251.47 2226.08 2262.66 2237.23 2268.88 2245.89 2273.85 2254.56 2275.1 2264.47 2273.85 2263.23 2282.55 2255.8 2291.26 2247.13 2293.75 2238.46 2296.23 2228.55 2294.99 2222.36 2290.01 2222.36 2299.96 2219.89 2311.16 2216.17 2319.86 2211.22 2328.56 2206.26 2336.02 2198.83 2341 2192.64 2334.78 2187.68 2328.56 2182.73 2319.86 2179.01 2311.16 2176.54 2301.21 2176.54 2290.01 2169.11 2294.99 2160.43 2296.23 2151.77 2293.75 2143.1 2291.26 2135.67 2282.55 2134.43 2272.61 2143.1 2275.1 2153.01 2273.85 2161.67 2268.88 2171.58 2262.66 2179.01 2251.47 2179.01 2239.03L2103.46 2239.03 2103.46 2204.22 2149.29 2205.46C2149.29 2198 2148.05 2191.78 2146.81 2185.57 2145.57 2179.35 2143.1 2174.37 2140.62 2168.16 2135.67 2160.69 2129.47 2154.48 2120.8 2150.75 2112.13 2147.02 2103.46 2147.02 2093.56 2149.5 2084.89 2151.99 2076.21 2158.21 2071.26 2166.91 2066.31 2175.62 2065.07 2185.57 2067.55 2195.51 2050.2 2190.54 2036.58 2176.86 2029.15 2160.69 2024.2 2145.77 2022.96 2130.85 2027.91 2115.93 2034.1 2098.52 2046.49 2084.84 2062.59 2077.38 2076.21 2071.16 2092.32 2068.68 2107.18 2073.65 2119.56 2077.38 2131.95 2084.84 2140.62 2094.79 2149.29 2104.74 2155.48 2114.69 2159.2 2127.12 2162.91 2139.56 2166.63 2151.99 2167.87 2164.43 2170.34 2178.11 2170.34 2191.78 2170.34 2205.46L2187.68 2204.22C2188.92 2194.27 2187.68 2183.08 2187.68 2171.89 2186.44 2160.69 2185.21 2149.5 2182.73 2137.07 2180.25 2124.63 2176.54 2113.44 2171.58 2101.01 2166.63 2088.58 2161.67 2077.38 2154.24 2064.95 2148.05 2053.76 2144.33 2040.08 2143.1 2026.4 2141.86 2013.97 2143.1 2000.29 2146.81 1989.1 2149.29 1980.39 2153.01 1972.93 2156.72 1966.72 2160.43 1959.25 2165.39 1954.28 2171.58 1946.82 2176.54 1939.36 2182.73 1933.14 2187.68 1926.92 2192.64 1921.95 2196.35 1916.98 2200.07 1912 2203.78 1916.98 2208.74 1923.19 2213.69 1928.17 2218.65 1934.38 2223.6 1940.6 2228.55 1946.82 2233.51 1953.04 2238.46 1959.25 2242.18 1966.72 2247.13 1972.93 2249.61 1981.63 2253.33 1989.1 2255.8 2001.53 2257.04 2013.97 2257.04 2026.4 2255.8 2040.08 2250.85 2053.76 2244.65 2064.95 2238.46 2077.38 2232.27 2088.58 2227.32 2101.01 2223.6 2113.44 2219.89 2124.63 2216.17 2137.07 2213.69 2148.26 2212.45 2160.69 2212.45 2171.89 2211.22 2183.08 2211.22 2194.27 2211.22 2204.22L2228.55 2205.46C2227.32 2191.78 2228.55 2178.11 2231.03 2164.43 2232.27 2151.99 2235.99 2139.56 2239.7 2127.12 2243.42 2114.69 2249.61 2103.5 2258.28 2094.79 2268.19 2084.84 2279.34 2077.38 2292.96 2073.65 2307.82 2069.92 2322.68 2071.16 2336.31 2077.38 2353.65 2084.84 2366.03 2099.77 2372.22 2117.17 2375.94 2130.85 2375.94 2147.02 2369.75 2160.69 2362.32 2178.11 2348.69 2190.54 2331.35 2196.76 2333.83 2186.81 2332.59 2176.86 2327.64 2166.91 2322.68 2158.21 2314.01 2151.99 2305.34 2149.5 2295.44 2147.02 2286.76 2147.02 2278.1 2150.75 2269.43 2154.48 2263.23 2160.69 2258.28 2169.4 2255.8 2174.37 2253.33 2179.35 2252.09 2185.57 2250.85 2191.78 2249.61 2198 2249.61 2205.46L2294.2 2204.22 2294.2 2239.03 2218.65 2239.03Z" fill="#FFFFFF" fill-rule="evenodd"/><path d="M2378.28 364.75 2466.09 334.75 2474.76 334.75 2266.97 433.501 2249.65 503.502 2192.76 546 2263.26 273.5 2278.1 272.25 2221.21 491 2239.76 479.749 2294.18 271 2309.02 271 2280.57 379.752 2457.43 334.75 2458.67 334.75 2462.38 334.75 2365.91 364.75 2378.28 364.75Z" fill="#FFFFFF" fill-rule="evenodd"/><path d="M1512.76 535 1546.51 322.929 1565.26 299.228 1797.76 288 1776.51 307.96 1745.26 490.091 1512.76 535Z" fill="#FFFFFF" fill-rule="evenodd"/><path d="M2656.76 171.447 2656.76 130C2570.76 131.184 2484.77 132.368 2398.76 134.737L2399.99 175C2484.77 172.632 2570.76 171.447 2656.76 171.447Z" fill="#E21C2A" fill-rule="evenodd"/><path d="M2676.76 128.25 2676.76 172C2765.1 170.75 2853.41 170.75 2941.76 172L2941.76 127C2853.41 127 2765.1 127 2676.76 128.25Z" fill="#E21C2A" fill-rule="evenodd"/><path d="M2377.53 177.35 2378.76 134C2322.07 136.551 2266.62 137.825 2211.16 140.376 2186.52 140.376 2160.64 141.65 2134.76 142.925L2134.76 185C2161.87 183.725 2188.98 182.45 2214.86 182.45 2269.08 179.9 2323.31 178.625 2377.53 177.35Z" fill="#E21C2A" fill-rule="evenodd"/><path d="M1884.99 155.415 1883.76 196C1960.02 192.195 2036.27 188.391 2113.76 185.854L2112.53 144C2036.27 147.805 1960.02 151.61 1884.99 155.415Z" fill="#E21C2A" fill-rule="evenodd"/><path d="M1863.76 196.857 1862.53 158C1792.53 161.643 1723.76 165.286 1653.76 170.143L1654.99 209C1723.76 204.143 1793.76 200.501 1863.76 196.857Z" fill="#E21C2A" fill-rule="evenodd"/><path d="M1636.76 209.954 1636.76 172C1574.18 175.558 1511.59 180.302 1447.76 185.047L1447.76 223C1510.34 218.256 1574.18 213.512 1636.76 209.954Z" fill="#E21C2A" fill-rule="evenodd"/><path d="M2762.87 501.894 2716.86 303.276 2680.76 271 2757.9 271 2792.77 300.793 2848.76 559 2762.87 501.894Z" fill="#FFFFFF" fill-rule="evenodd"/><path d="M1962.76 499.24 1928.09 498 1832.76 527.76 1874.86 529 1962.76 499.24Z" fill="#E21C2A" fill-rule="evenodd"/><path d="M2000.83 487 2072.76 462.572 2050.05 460 1966.76 485.714 2000.83 487Z" fill="#E21C2A" fill-rule="evenodd"/><path d="M2130.31 501 2079.76 279.246 2101.43 278 2144.76 489.788 2142.35 501 2130.31 501Z" fill="#FFFFFF" fill-rule="evenodd"/><path d="M2154.06 463 2113.76 279.233 2130.66 278 2165.76 419.833 2154.06 463Z" fill="#FFFFFF" fill-rule="evenodd"/><path d="M2313.65 381 2275.76 391.5 2292.87 395 2330.76 382.165 2313.65 381Z" fill="#E21C2A" fill-rule="evenodd"/><path d="M2367.76 367 2352.39 367 2326.76 378 2344.7 378 2367.76 367Z" fill="#E21C2A" fill-rule="evenodd"/><path d="M2481.76 525 2505.76 525 2504.49 487 2484.26 487 2481.76 525Z" fill="#E21C2A" fill-rule="evenodd"/><path d="M2484.76 467 2501.76 467 2500.64 439 2485.92 439 2484.76 467Z" fill="#E21C2A" fill-rule="evenodd"/><path d="M2484.76 429 2501.76 429 2500.33 412 2484.76 412 2484.76 429Z" fill="#E21C2A" fill-rule="evenodd"/><path d="M2487.74 402 2498.74 402 2497.64 384 2487.74 384 2487.74 402Z" fill="#E21C2A" fill-rule="evenodd"/><path d="M2487.74 378 2498.74 378 2497.35 364 2487.74 364 2487.74 378Z" fill="#E21C2A" fill-rule="evenodd"/><path d="M2381.61 1584.04C2402.47 1616.23 2445.41 1641 2489.59 1641 2526.39 1641 2561.96 1626.14 2587.72 1601.38 2607.38 1581.56 2646.62 1532.03 2652.76 1337.62L2649.09 1270.75C2631.9 1068.91 2559.53 1033 2493.26 1033 2450.31 1033 2407.38 1055.29 2384.06 1088.72 2377.93 1097.39 2333.76 1154.35 2333.76 1337.62 2333.76 1468.88 2361.98 1550.61 2376.7 1574.13L2381.61 1584.04Z" fill="#005FA3" fill-rule="evenodd"/></g></svg>