<svg width="540" height="722" xmlns="http://www.w3.org/2000/svg" xmlns:xlink="http://www.w3.org/1999/xlink" overflow="hidden"><defs><clipPath id="clip0"><rect x="370" y="-1" width="540" height="722"/></clipPath></defs><g clip-path="url(#clip0)" transform="translate(-370 1)"><path d="M371.5 1.50005 909.5 1.50005 909.5 590.695C909.5 609.816 901.198 627.497 887.837 639.762 875.201 652.393 857.869 659.25 839.816 659.25L705.494 659.25C692.496 659.25 680.581 663.938 672.276 672.596 663.61 681.258 659.277 692.803 659.277 705.792L659.277 719.5 621.725 719.5 621.725 705.792C621.725 692.803 617.392 681.258 608.726 672.596 600.422 663.938 588.506 659.25 575.508 659.25L441.187 659.25C423.134 659.25 405.802 652.393 393.165 639.762 379.805 627.497 371.5 609.816 371.5 590.695L371.5 1.50005Z" stroke="#010202" stroke-width="1.08304" stroke-miterlimit="8" fill="#FFFFFF" fill-rule="evenodd"/><path d="M896 209 384 209 384 590.864C384.362 605.659 390.87 619.738 401.356 630.205 411.842 639.948 425.944 645.725 440.406 645.725L574.915 645.725C591.186 645.363 606.734 651.497 617.943 663.046 629.152 674.237 635.299 689.757 634.937 706L645.061 706C644.7 689.757 650.846 674.237 662.056 663.046 673.265 651.497 688.812 645.363 705.084 645.725L839.593 645.725C854.057 645.725 868.157 639.948 878.643 630.205 889.129 619.738 895.637 605.659 896 590.864L896 209Z" fill="#008866" fill-rule="evenodd"/><path d="M384 14 896 14 896 193 384 193Z" fill="#008866" fill-rule="evenodd"/><path d="M645.652 135.532 645.293 135.532C645.652 138.775 647.452 142.018 650.33 143.82 652.849 145.261 655.368 145.621 658.246 144.901 657.527 147.784 655.728 149.946 653.209 150.667 650.69 151.747 648.171 151.027 646.372 149.586 646.372 152.829 645.652 155.712 644.573 158.234 643.493 160.396 641.694 162.559 639.895 164 638.096 162.198 636.657 160.396 635.218 158.234 634.138 155.712 633.418 152.829 633.418 149.946 631.259 151.387 628.741 151.747 626.582 150.667 624.063 149.946 621.904 147.784 621.544 144.901 624.063 145.621 626.941 145.261 629.46 143.82 632.339 142.018 634.138 138.775 634.138 135.532L613.268 135.532 613.268 125.802 625.862 125.802C625.862 124 625.862 122.198 625.142 120.396 624.783 118.955 624.063 117.153 623.343 115.712 622.264 113.55 620.105 111.748 617.946 111.027 615.427 109.585 612.908 109.585 610.389 110.306 607.871 111.027 605.712 112.829 604.272 115.351 602.833 117.874 602.473 120.757 602.833 123.279 598.155 121.838 594.197 118.234 592.398 113.55 590.599 109.585 590.599 105.261 592.038 100.937 593.478 96.2521 597.076 92.2885 601.754 90.1261 605.352 88.3244 610.03 87.9642 613.988 89.0453 617.586 90.1261 620.824 92.2885 623.343 95.1714 625.862 97.6937 627.661 100.937 628.741 104.18 629.82 107.424 630.54 111.027 631.259 114.631 631.619 118.234 631.979 122.198 631.619 125.802L636.657 125.802C636.657 122.559 636.657 119.676 636.657 116.793 636.297 113.55 635.937 110.306 635.218 107.063 634.498 103.459 633.418 100.216 632.339 96.9731 630.9 93.3693 629.101 90.1261 627.301 86.883 625.502 83.2795 624.423 79.6757 624.063 75.7119 623.703 72.1081 624.063 68.865 625.142 65.2616 625.862 63.0992 626.941 60.9372 628.021 59.1355 629.101 56.9731 630.54 55.5317 631.979 53.7299 633.418 51.5679 635.218 49.7658 636.657 47.9641 638.096 46.5226 639.176 45.4414 639.895 44 641.335 45.4414 642.414 46.8829 643.853 48.3244 645.293 50.1265 646.732 51.9282 648.171 53.3697 649.61 55.1713 651.05 56.9731 652.129 59.1355 653.209 60.9372 654.288 63.0992 655.008 65.2616 655.728 68.865 656.087 72.4684 656.087 75.7119 655.728 79.6757 654.648 83.2795 652.849 86.883 651.05 90.1261 649.251 93.3693 647.811 96.9731 646.732 100.216 645.652 103.459 644.573 107.063 643.853 109.946 643.493 113.189 643.493 116.793 643.134 119.676 643.134 122.559 643.134 125.802L647.811 125.802C647.811 122.198 648.171 118.234 648.531 114.631 649.251 111.027 649.97 107.424 651.41 104.18 652.129 100.577 653.928 97.6937 656.447 95.1714 658.966 92.2885 662.564 90.1261 666.163 89.0453 670.121 87.9642 674.438 88.3244 678.397 90.1261 683.074 92.2885 686.672 96.2521 688.112 101.298 689.551 105.261 689.192 109.585 687.392 113.55 685.593 118.234 681.635 121.838 676.958 123.64 677.677 120.757 677.317 117.874 675.878 115.351 674.438 112.829 672.28 111.027 669.401 110.306 666.882 109.585 664.363 109.946 661.845 110.667 659.686 111.748 657.527 113.55 656.447 115.712 655.728 117.153 655.008 118.955 654.648 120.396 654.288 122.198 653.928 124 653.928 125.802L666.522 125.802 666.522 135.532 645.652 135.532Z" fill="#FFFFFF" fill-rule="evenodd"/><path d="M493.008 135.532 493.008 135.532C493.37 138.775 495.181 142.018 498.078 143.82 500.614 145.261 503.149 145.621 506.046 144.901 505.322 147.784 503.511 149.946 500.976 150.667 498.441 151.747 495.906 151.027 494.095 149.586 494.095 152.829 493.37 155.712 492.284 158.234 490.835 160.396 489.386 162.559 487.214 164 485.403 162.198 483.954 160.396 482.505 158.234 481.419 155.712 480.695 152.829 480.695 149.946 478.521 151.387 475.986 151.747 473.813 150.667 471.278 149.946 469.105 147.784 468.743 144.901 471.278 145.621 474.175 145.261 476.711 143.82 479.608 142.018 481.419 138.775 481.419 135.532L460.413 135.532 460.413 125.802 473.089 125.802C473.089 124 473.089 122.198 472.364 120.396 472.002 118.955 471.278 117.153 470.554 115.712 469.467 113.55 467.294 111.748 465.121 111.027 462.586 109.585 460.051 109.585 457.516 110.306 454.981 111.027 452.807 112.829 451.359 115.351 449.91 117.874 449.548 120.757 449.91 123.279 445.202 121.838 441.218 118.234 439.407 113.55 437.596 109.585 437.596 105.261 439.045 100.937 440.494 96.2521 444.115 92.2885 448.824 90.1261 452.445 88.3244 457.153 87.9642 461.137 89.0453 464.759 90.1261 468.018 92.2885 470.554 95.1714 473.089 97.6937 474.9 100.937 475.986 104.18 477.073 107.424 477.797 111.027 478.521 114.631 478.884 118.234 479.246 122.198 478.884 125.802L483.954 125.802C483.954 122.559 483.954 119.676 483.954 116.793 483.592 113.55 483.229 110.306 482.505 107.063 481.781 103.459 480.695 100.216 479.608 96.9731 478.159 93.3693 476.349 90.1261 474.538 86.883 472.727 83.2795 471.64 79.6757 471.278 75.7119 470.916 72.1081 471.278 68.865 472.364 65.2616 473.089 63.0992 474.175 60.9372 475.262 59.1355 476.349 56.9731 477.797 55.5317 479.246 53.7299 480.695 51.5679 482.505 49.7658 483.954 47.9641 485.403 46.5226 486.489 45.4414 487.576 44 489.024 45.4414 490.111 46.8829 491.56 48.3244 493.008 50.1265 494.457 51.9282 495.906 53.3697 497.354 55.1713 498.803 56.9731 499.889 59.1355 500.976 60.9372 502.062 63.0992 502.786 65.2616 503.511 68.865 503.873 72.4684 503.873 75.7119 503.511 79.6757 502.424 83.2795 500.614 86.883 498.441 90.1261 496.992 93.3693 495.544 96.9731 494.457 100.216 493.37 103.459 492.284 107.063 491.56 109.946 491.197 113.189 491.197 116.793 490.835 119.676 490.835 122.559 490.835 125.802L495.544 125.802C495.544 122.198 495.906 118.234 496.268 114.631 496.992 111.027 497.716 107.424 499.165 104.18 499.889 100.577 501.7 97.6937 504.235 95.1714 506.771 92.2885 510.392 90.1261 514.014 89.0453 517.998 87.9642 522.344 88.3244 526.328 90.1261 531.036 92.2885 534.658 96.2521 536.106 101.298 537.555 105.261 537.193 109.585 535.382 113.55 533.571 118.234 529.587 121.838 524.879 123.64 525.604 120.757 525.241 117.874 523.792 115.351 522.344 112.829 520.171 111.027 517.273 110.306 514.738 109.585 512.203 109.946 509.668 110.667 507.495 111.748 505.322 113.55 504.235 115.712 503.511 117.153 502.786 118.955 502.424 120.396 502.062 122.198 501.7 124 501.7 125.802L514.376 125.802 514.376 135.532 493.008 135.532Z" fill="#FFFFFF" fill-rule="evenodd"/><path d="M799.37 135.532 799.008 135.532C799.37 138.775 801.18 142.018 804.079 143.82 806.614 145.261 809.149 145.621 812.047 144.901 811.32 147.784 809.512 149.946 806.977 150.667 804.438 151.747 801.903 151.027 800.094 149.586 800.094 152.829 799.37 155.712 798.283 158.234 797.197 160.396 795.386 162.559 793.213 164 791.402 162.198 789.954 160.396 788.505 158.234 787.418 155.712 786.694 152.829 786.694 149.946 784.521 151.387 781.986 151.747 779.813 150.667 777.278 149.946 775.105 147.784 774.743 144.901 777.278 145.621 780.175 145.261 782.71 143.82 785.607 142.018 787.418 138.775 787.418 135.532L766.413 135.532 766.413 125.802 779.089 125.802C779.089 124 779.089 122.198 778.364 120.396 778.002 118.955 777.278 117.153 776.553 115.712 775.467 113.55 773.294 111.748 771.121 111.027 768.948 109.585 766.051 109.585 763.515 110.306 760.98 111.027 758.807 112.829 757.359 115.351 755.91 117.874 755.548 120.757 755.91 123.279 751.202 121.838 747.218 118.234 745.407 113.55 743.596 109.585 743.596 105.261 745.045 100.937 746.494 96.2521 750.115 92.2885 754.823 90.1261 758.445 88.3244 763.153 87.9642 767.137 89.0453 770.759 90.1261 774.018 92.2885 776.553 95.1714 779.089 97.6937 780.899 100.937 781.986 104.18 783.072 107.424 783.797 111.027 784.521 114.631 784.883 118.234 785.245 122.198 784.883 125.802L789.954 125.802C789.954 122.559 789.954 119.676 789.954 116.793 789.592 113.55 789.229 110.306 788.505 107.063 787.78 103.459 786.694 100.216 785.607 96.9731 784.159 93.3693 782.348 90.1261 780.537 86.883 778.726 83.2795 777.64 79.6757 777.278 75.7119 776.915 72.1081 777.278 68.865 778.364 65.2616 779.089 63.0992 780.175 60.9372 781.262 59.1355 782.348 56.9731 783.797 55.5317 785.245 53.7299 786.694 51.5679 788.505 49.7658 789.954 47.9641 791.402 46.5226 792.488 45.4414 793.575 44 795.024 45.4414 796.11 46.8829 797.559 48.3244 799.008 50.1265 800.456 51.9282 801.903 53.3697 803.352 55.1713 804.802 56.9731 805.887 59.1355 806.977 60.9372 808.063 63.0992 808.785 65.2616 809.512 68.865 809.871 72.4684 809.871 75.7119 809.512 79.6757 808.422 83.2795 806.614 86.883 804.802 90.1261 802.993 93.3693 801.542 96.9731 800.456 100.216 799.37 103.459 798.283 107.063 797.559 109.946 797.197 113.189 797.197 116.793 796.834 119.676 796.834 122.559 796.834 125.802L801.542 125.802C801.542 122.198 801.903 118.234 802.267 114.631 802.993 111.027 803.716 107.424 805.165 104.18 805.887 100.577 807.7 97.6937 810.235 95.1714 812.769 92.2885 816.39 90.1261 820.015 89.0453 823.999 87.9642 828.342 88.3244 832.326 90.1261 837.037 92.2885 840.657 96.2521 842.106 101.298 843.555 105.261 843.192 109.585 841.38 113.55 839.571 118.234 835.588 121.838 830.877 123.64 831.604 120.757 831.24 117.874 829.791 115.351 828.342 112.829 826.17 111.027 823.272 110.306 820.737 109.585 818.203 109.946 815.668 110.667 813.496 111.748 811.32 113.55 810.235 115.712 809.512 117.153 808.785 118.955 808.422 120.396 808.063 122.198 807.7 124 807.7 125.802L820.374 125.802 820.374 135.532 799.37 135.532Z" fill="#FFFFFF" fill-rule="evenodd"/></g></svg>